<svg id="reviews_black_24dp" xmlns="http://www.w3.org/2000/svg" width="24" height="24" viewBox="0 0 24 24">
  <g id="Group_450" data-name="Group 450">
    <path id="Path_1242" data-name="Path 1242" d="M0,0H24V24H0Z" fill="none"/>
  </g>
  <g id="Group_451" data-name="Group 451">
    <path id="Path_1243" data-name="Path 1243" d="M20,2H4A2.006,2.006,0,0,0,2,4V19.59a1,1,0,0,0,1.71.71L6,18H20a2.006,2.006,0,0,0,2-2V4A2.006,2.006,0,0,0,20,2Zm-6.43,9.57-1.12,2.44a.5.5,0,0,1-.91,0l-1.12-2.44L7.98,10.45a.5.5,0,0,1,0-.91l2.44-1.12,1.12-2.44a.5.5,0,0,1,.91,0l1.12,2.44,2.44,1.12a.5.5,0,0,1,0,.91Z" fill="#3d80e5"/>
  </g>
</svg>
