<svg id="shopping_bag_black_24dp_1_" data-name="shopping_bag_black_24dp (1)" xmlns="http://www.w3.org/2000/svg" width="24" height="24" viewBox="0 0 24 24">
  <rect id="Rectangle_448" data-name="Rectangle 448" width="24" height="24" fill="none"/>
  <path id="Path_1239" data-name="Path 1239" d="M18,6H16A4,4,0,0,0,8,6H6A2.006,2.006,0,0,0,4,8V20a2.006,2.006,0,0,0,2,2H18a2.006,2.006,0,0,0,2-2V8A2.006,2.006,0,0,0,18,6Zm-8,4a1,1,0,0,1-2,0V8h2Zm2-6a2.006,2.006,0,0,1,2,2H10A2.006,2.006,0,0,1,12,4Zm4,6a1,1,0,0,1-2,0V8h2Z" fill="#3d80e5"/>
</svg>
